<?xml version="1.0" standalone="no"?>
<!DOCTYPE svg PUBLIC "-//W3C//DTD SVG 20010904//EN"
 "http://www.w3.org/TR/2001/REC-SVG-20010904/DTD/svg10.dtd">
<svg version="1.0" xmlns="http://www.w3.org/2000/svg"
 width="2048.000000pt" height="2048.000000pt" viewBox="0 0 2048.000000 2048.000000"
 preserveAspectRatio="xMidYMid meet">

<g transform="translate(0.000000,2048.000000) scale(0.100000,-0.100000)"
fill="#000000" stroke="none">
<path d="M9895 13978 c-57 -58 -67 -109 -33 -176 12 -26 38 -57 57 -69 l34
-23 1607 0 1607 0 33 23 c95 64 90 210 -9 265 l-39 22 -1607 0 -1608 0 -42
-42z"/>
<path d="M8244 13981 c-29 -18 -179 -184 -681 -756 -116 -132 -236 -267 -266
-300 l-56 -60 -97 100 c-258 269 -264 274 -300 281 -129 24 -230 -100 -179
-221 16 -39 473 -508 517 -531 35 -18 101 -18 137 1 30 15 104 94 287 306 60
69 188 215 284 324 534 605 569 647 576 681 24 131 -114 241 -222 175z"/>
<path d="M9955 12778 c-66 -23 -105 -81 -105 -155 0 -57 26 -105 72 -133 33
-20 54 -20 1631 -20 1391 0 1602 2 1627 15 62 32 99 115 81 183 -12 42 -61 95
-104 111 -39 15 -3160 14 -3202 -1z"/>
<path d="M9932 11533 c-100 -49 -116 -184 -29 -258 l41 -35 1610 0 c1598 0
1611 0 1644 20 36 22 71 88 72 133 0 45 -25 92 -66 123 l-37 29 -1601 2
c-1460 2 -1604 1 -1634 -14z"/>
<path d="M8243 11494 c-18 -9 -88 -80 -155 -157 -155 -179 -610 -688 -741
-829 -80 -87 -102 -106 -116 -99 -9 5 -91 89 -181 185 -176 189 -200 206 -274
192 -41 -8 -90 -46 -111 -87 -20 -37 -19 -103 1 -144 19 -40 475 -510 515
-530 38 -20 93 -19 137 4 22 11 95 84 182 182 80 89 190 212 245 273 55 61
167 188 250 281 82 94 218 247 301 341 117 131 155 180 164 212 34 127 -99
234 -217 176z"/>
<path d="M9932 10283 c-105 -52 -111 -211 -10 -273 33 -20 54 -20 1633 -20
1539 0 1602 1 1635 19 42 22 80 83 80 129 0 45 -22 91 -59 127 l-32 30 -1607
2 c-1473 2 -1610 1 -1640 -14z"/>
<path d="M9922 9040 c-52 -32 -74 -76 -70 -140 4 -63 32 -108 82 -135 28 -15
164 -16 1633 -13 1600 3 1602 3 1629 24 71 52 91 124 55 196 -12 24 -34 52
-49 63 -27 20 -45 20 -1637 23 -1593 2 -1610 2 -1643 -18z"/>
<path d="M8265 9030 c-42 -13 -69 -38 -186 -175 -322 -375 -824 -925 -844
-925 -9 0 -105 97 -310 314 -65 68 -129 84 -201 50 -45 -21 -84 -87 -84 -141
0 -57 24 -88 253 -325 253 -263 274 -280 343 -286 88 -7 54 -39 550 518 723
814 680 762 677 837 -5 90 -109 160 -198 133z"/>
<path d="M9933 7815 c-48 -21 -83 -79 -83 -141 0 -61 27 -107 80 -138 35 -21
41 -21 1620 -23 1576 -2 1585 -2 1627 18 116 56 118 219 3 277 l-44 22 -1586
0 c-1321 -1 -1590 -3 -1617 -15z"/>
</g>
</svg>
